<mxfile host="Electron" modified="2023-10-13T14:22:54.459Z" agent="Mozilla/5.0 (Windows NT 10.0; Win64; x64) AppleWebKit/537.36 (KHTML, like Gecko) draw.io/22.0.2 Chrome/114.0.5735.289 Electron/25.8.4 Safari/537.36" etag="AEamDGxBfAM1MU3khs4t" version="22.0.2" type="device">
  <diagram name="Page-1" id="-5QLn9L1FUuXq_9v6oXG">
    <mxGraphModel dx="665" dy="393" grid="1" gridSize="10" guides="1" tooltips="1" connect="1" arrows="1" fold="1" page="1" pageScale="1" pageWidth="827" pageHeight="1169" math="0" shadow="0">
      <root>
        <mxCell id="0" />
        <mxCell id="1" parent="0" />
        <mxCell id="IjMWrlQXOTTK2lYj-osg-17" style="edgeStyle=orthogonalEdgeStyle;rounded=0;orthogonalLoop=1;jettySize=auto;html=1;exitX=0.5;exitY=0.5;exitDx=0;exitDy=0;exitPerimeter=0;strokeColor=none;endArrow=none;endFill=0;" parent="1" edge="1">
          <mxGeometry relative="1" as="geometry">
            <Array as="points">
              <mxPoint x="740" y="140" />
              <mxPoint x="920" y="140" />
            </Array>
            <mxPoint x="700" y="365" as="sourcePoint" />
            <mxPoint x="920" y="70" as="targetPoint" />
          </mxGeometry>
        </mxCell>
        <mxCell id="IjMWrlQXOTTK2lYj-osg-1" value="Player" style="shape=umlActor;verticalLabelPosition=bottom;verticalAlign=top;html=1;" parent="1" vertex="1">
          <mxGeometry x="110" y="300" width="40" height="80" as="geometry" />
        </mxCell>
        <mxCell id="IjMWrlQXOTTK2lYj-osg-6" value="HeistNet&amp;nbsp; App" style="shape=umlFrame;whiteSpace=wrap;html=1;pointerEvents=0;" parent="1" vertex="1">
          <mxGeometry x="230" y="100" width="420" height="460" as="geometry" />
        </mxCell>
        <mxCell id="IjMWrlQXOTTK2lYj-osg-7" value="Select a pair of tiles" style="ellipse;whiteSpace=wrap;html=1;" parent="1" vertex="1">
          <mxGeometry x="270" y="160" width="100" height="50" as="geometry" />
        </mxCell>
        <mxCell id="IjMWrlQXOTTK2lYj-osg-9" value="Check for match" style="ellipse;whiteSpace=wrap;html=1;" parent="1" vertex="1">
          <mxGeometry x="470" y="120" width="100" height="50" as="geometry" />
        </mxCell>
        <mxCell id="IjMWrlQXOTTK2lYj-osg-32" value="" style="endArrow=none;html=1;rounded=0;exitX=0;exitY=0.5;exitDx=0;exitDy=0;entryX=0.99;entryY=0.366;entryDx=0;entryDy=0;entryPerimeter=0;endFill=0;dashed=1;startArrow=open;startFill=0;" parent="1" source="IjMWrlQXOTTK2lYj-osg-9" target="IjMWrlQXOTTK2lYj-osg-7" edge="1">
          <mxGeometry width="50" height="50" relative="1" as="geometry">
            <mxPoint x="380" y="220" as="sourcePoint" />
            <mxPoint x="430" y="170" as="targetPoint" />
          </mxGeometry>
        </mxCell>
        <mxCell id="IjMWrlQXOTTK2lYj-osg-78" value="&lt;font style=&quot;font-size: 9px;&quot;&gt;&amp;lt;&amp;lt;include&amp;gt;&amp;gt;&lt;/font&gt;" style="edgeLabel;html=1;align=center;verticalAlign=middle;resizable=0;points=[];" parent="IjMWrlQXOTTK2lYj-osg-32" vertex="1" connectable="0">
          <mxGeometry x="-0.1022" y="4" relative="1" as="geometry">
            <mxPoint x="-6" y="-4" as="offset" />
          </mxGeometry>
        </mxCell>
        <mxCell id="IjMWrlQXOTTK2lYj-osg-33" value="" style="endArrow=none;html=1;rounded=0;entryX=0;entryY=0.5;entryDx=0;entryDy=0;exitX=1;exitY=0.3333333333333333;exitDx=0;exitDy=0;exitPerimeter=0;" parent="1" source="IjMWrlQXOTTK2lYj-osg-1" target="IjMWrlQXOTTK2lYj-osg-7" edge="1">
          <mxGeometry width="50" height="50" relative="1" as="geometry">
            <mxPoint x="400" y="370" as="sourcePoint" />
            <mxPoint x="450" y="320" as="targetPoint" />
          </mxGeometry>
        </mxCell>
        <mxCell id="IjMWrlQXOTTK2lYj-osg-79" value="&lt;font style=&quot;font-size: 10px;&quot;&gt;View Performance Stats&lt;/font&gt;" style="ellipse;whiteSpace=wrap;html=1;" parent="1" vertex="1">
          <mxGeometry x="260" y="250" width="100" height="50" as="geometry" />
        </mxCell>
        <mxCell id="jTgK9KJ0tUcKgJLbQhea-1" value="Performance &lt;br&gt;Manager" style="shape=umlActor;verticalLabelPosition=bottom;verticalAlign=top;html=1;" vertex="1" parent="1">
          <mxGeometry x="690" y="335" width="40" height="80" as="geometry" />
        </mxCell>
        <mxCell id="jTgK9KJ0tUcKgJLbQhea-2" value="Grid Manager" style="shape=umlActor;verticalLabelPosition=bottom;verticalAlign=top;html=1;" vertex="1" parent="1">
          <mxGeometry x="690" y="210" width="40" height="80" as="geometry" />
        </mxCell>
        <mxCell id="jTgK9KJ0tUcKgJLbQhea-4" value="" style="endArrow=none;html=1;rounded=0;" edge="1" parent="1" source="jTgK9KJ0tUcKgJLbQhea-2" target="IjMWrlQXOTTK2lYj-osg-9">
          <mxGeometry width="50" height="50" relative="1" as="geometry">
            <mxPoint x="320" y="210" as="sourcePoint" />
            <mxPoint x="370" y="160" as="targetPoint" />
          </mxGeometry>
        </mxCell>
      </root>
    </mxGraphModel>
  </diagram>
</mxfile>
